<svg width="928" height="449" viewBox="0 0 928 449" fill="none" xmlns="http://www.w3.org/2000/svg">
<circle cx="180" cy="203" r="180" fill="white"/>
<path d="M162.6 224.867C162.6 224.867 176.845 228.105 204.039 216.45C231.233 204.796 231.233 186.019 231.233 186.019C216.989 191.846 204.686 182.781 204.686 182.781L216.341 176.955C238.355 172.422 262.959 149.761 267.491 145.876C272.023 141.991 278.498 129.689 265.549 134.221C252.6 138.754 237.707 135.516 237.707 135.516L245.478 129.041C283.679 105.732 290.153 83.0706 283.679 79.1859C277.204 75.3012 261.864 89.1442 261.864 89.1442C91.3655 193.551 72.8889 334.935 72.8889 334.935C72.8889 334.935 71.7008 342.06 80.6076 341.466C89.5133 340.872 81.2798 285.458 162.6 224.867Z" fill="url(#paint0_linear)"/>
<path d="M449.305 307.707V102.922H555.945V143.938H490.613V185.539H528.406V226.848H490.613V307.707H449.305ZM581.867 308V102.922H623.176V308H581.867ZM653.785 308V163.859H656.129L695.094 226.555V308H653.785ZM653.785 129.875V102.922H687.477L784.156 258.781V308H764.527L653.785 129.875ZM742.848 162.102V102.922H784.156V224.797H781.812L742.848 162.102ZM811.25 308V266.691L872.773 143.938H811.25V102.922H918.477V143.059L856.953 265.812H918.477V308H811.25Z" fill="white"/>
<defs>
<linearGradient id="paint0_linear" x1="179.354" y1="78.4983" x2="179.354" y2="341.501" gradientUnits="userSpaceOnUse">
<stop stop-color="#4946FA"/>
<stop offset="1" stop-color="#3331AC"/>
</linearGradient>
</defs>
</svg>
