<svg width="1459" height="529" viewBox="0 0 1459 529" fill="none" xmlns="http://www.w3.org/2000/svg">
<circle cx="264.5" cy="264.5" r="264.5" fill="#4946FA"/>
<path d="M240.514 294.554C240.514 294.554 260.907 299.189 299.841 282.504C338.774 265.819 338.774 238.935 338.774 238.935C318.381 247.279 300.768 234.3 300.768 234.3L317.453 225.958C348.971 219.469 384.196 187.025 390.685 181.463C397.173 175.902 406.443 158.288 387.903 164.777C369.364 171.267 348.043 166.632 348.043 166.632L359.168 157.362C413.86 123.99 423.128 91.5462 413.86 85.9844C404.59 80.4227 382.628 100.242 382.628 100.242C138.528 249.719 112.075 452.136 112.075 452.136C112.075 452.136 110.375 462.337 123.126 461.487C135.876 460.636 124.089 381.3 240.514 294.554Z" fill="white"/>
<path d="M643.964 451.175V95.6255H829.114V166.837H715.684V239.066H781.3V310.786H715.684V451.175H643.964Z" fill="#4946FA"/>
<path d="M874.12 451.683V95.6255H945.84V451.683H874.12Z" fill="#4946FA"/>
<path d="M998.984 451.683V201.426H1003.05L1070.7 310.277V451.683H998.984ZM998.984 142.422V95.6255H1057.48L1225.33 366.229V451.683H1191.26L998.984 142.422ZM1153.61 198.374V95.6255H1225.33V307.226H1221.27L1153.61 198.374Z" fill="#4946FA"/>
<path d="M1272.38 451.683V379.963L1379.19 166.837H1272.38V95.6255H1458.54V165.311L1351.73 378.437H1458.54V451.683H1272.38Z" fill="#4946FA"/>
</svg>
